<svg width="123" height="112" viewBox="0 0 123 112" fill="none" xmlns="http://www.w3.org/2000/svg">
<path d="M114.29 19.1435C111.284 17.8009 109.814 17.8599 107.526 19.1799L94.4799 24.661C92.3669 18.263 91.1355 15.5076 89.0013 12.0655C88.0954 10.1283 87.3952 9.32931 85.8257 8.47547C83.77 7.9656 82.2708 8.18061 79.0673 9.4137C75.7631 10.7578 73.9905 11.5572 70.9709 13.0645L67.8147 13.0815L61.4781 8.60675C57.8453 5.4592 55.6515 3.88111 51.5198 1.44613C48.9693 0.0940372 47.2318 -0.00639692 44.7565 1.4826C42.1758 2.9281 41.0217 3.93625 39.3703 6.02059C37.942 8.08034 37.261 9.26976 36.2433 11.4482L32.2583 24.9965L15.5611 22.3812C5.513 22.8628 2.19935 24.1809 0.262725 28.3253C-0.0170156 31.692 0.227967 33.6403 1.66399 37.3356C6.80977 49.0796 11.2045 54.3521 21.634 61.5763C21.8117 67.4389 22.8549 70.2075 26.2109 74.1766C26.051 77.3308 25.9938 78.8401 26.7007 81.3883C26.8307 84.0585 27.3102 85.6143 28.0795 88.1106L28.0898 88.1442C30.1088 93.4383 31.8589 96.2614 35.372 100.73C37.763 103.153 39.179 104.301 42.1644 106.104C44.8951 107.866 46.5389 108.634 49.8488 109.67C52.5273 110.257 54.843 110.895 60.6773 110.964C65.8698 111.143 68.8881 110.318 74.1916 108.637C80.0574 105.717 83.5 102.916 89.9043 95.927C95.0658 88.9607 96.8664 84.6861 98.3666 76.4929C101.797 74.0367 103.315 72.2008 105.084 67.8897C105.962 63.376 105.496 60.6731 101.423 57.9898C107.293 54.1354 110.355 51.8396 114.44 47.0981C118.855 42.8222 120.541 39.8686 122.032 33.5303C122.418 30.2025 122.19 28.6614 120.641 26.3235C119.537 24.5485 118.916 23.6927 117.463 22.2826C116.53 20.6656 115.765 19.9534 114.29 19.1435Z" fill="black" stroke="black" stroke-width="0.0901776"/>
<path d="M91.5097 59.397C91.5162 60.7496 92.4314 63.0894 92.4333 63.4501L95.1313 62.0828C97.6543 61.1104 99.2899 61.7288 100.101 63.8596C101.069 65.3234 101.149 66.2083 100.574 67.9151C98.1247 71.0215 95.1913 73.3549 93.3983 75.1681L91.6191 79.6867C91.2359 82.5685 90.7572 84.1486 89.4036 86.9129C87.1267 92.2122 85.1163 94.9637 80.454 99.5862L75.9647 103.218C72.2456 105.824 70.2888 106.71 66.9689 107.324C64.0502 108.287 62.4618 107.799 59.7572 107.814C55.2729 107.878 53.1076 107.586 49.8306 106.515C43.2983 103.235 40.3075 100.765 36.2434 95.3157C33.1628 90.4156 31.6021 87.6431 30.3163 83.1735C29.6526 79.2762 29.4768 76.5417 29.3464 70.5536C26.8573 68.2146 26.005 66.6234 25.2496 63.3614L29.31 63.7904L29.3124 64.2413L32.0371 67.8338C34.1226 69.6311 35.3935 70.4125 37.918 71.4092C41.1357 71.2642 42.6799 70.8444 45.1224 69.5668C49.6466 66.9749 52.2033 65.0838 56.7991 60.9368C55.5616 64.8894 55.2058 67.1727 55.0515 71.3168C56.4107 72.6622 60.0177 72.6427 61.3639 71.2828C61.3508 70.6597 60.4763 70.4643 57.3011 70.4029C57.4039 67.5061 57.6596 65.8237 58.6124 62.7306L60.8303 55.9553C61.2756 55.051 62.6282 55.0437 63.0847 55.9431C63.6849 58.6591 64.2848 60.0526 65.824 62.2409C67.3581 65.0465 70.303 67.2379 72.6262 69.4185C75.6642 71.1259 77.4029 71.7852 80.759 72.5309C83.8496 72.5484 85.2634 72.191 87.0617 70.6933C88.9497 69.6134 89.5423 68.6313 89.7426 66.1699C90.0729 62.9367 90.0252 61.1836 89.2472 58.0564C90.2303 58.1814 90.7314 58.4865 91.5097 59.397Z" fill="#FFE63A"/>
<path d="M77.5 53.6108C81.5324 56.6193 83.6278 58.4716 87.0147 62.1265L87.0268 64.3809C83.6253 59.8656 81.5248 57.5137 77.5 53.6108Z" fill="#FFE63A"/>
<path d="M82.9957 69.3625C84.6678 68.7721 85.4908 68.3108 86.5906 67.0887C82.1 61.2028 79.3027 58.2856 73.8929 53.6303L68.0315 53.6619C74.7794 59.7389 78.0867 63.1746 82.9957 69.3625Z" fill="#FFE63A"/>
<path d="M42.3288 53.3496C46.2067 56.5372 48.3114 58.5122 51.8459 62.3162L50.9466 62.772L40.9737 52.906L42.3288 53.3496Z" fill="#FFE63A"/>
<path d="M34.23 56.5495C38.6963 60.1584 41.1039 62.3179 45.1054 66.4106L42.4042 67.3269C39.3087 63.5504 37.3048 61.4838 33.3355 57.907L34.23 56.5495Z" fill="#FFE63A"/>
<path d="M40.6031 67.7876C38.1063 64.5538 36.4868 62.8756 33.3477 60.1614L33.3574 61.965C35.9587 64.5249 37.2837 66.0103 39.2553 68.6966L40.6031 67.7876Z" fill="#FFE63A"/>
<path d="M39.4436 19.9989C39.0025 21.8049 38.1211 25.5972 38.125 26.3186C46.175 27.9455 50.7564 28.6822 59.3359 29.8114C67.1415 30.3162 71.353 30.2851 78.7238 29.7068C85.0218 29.5809 87.8337 28.9061 91.3322 26.4826C90.0657 23.6681 89.2667 22.1926 87.6879 19.7388C80.7109 24.3642 76.9274 25.5227 70.5836 25.2418C66.6789 25.7876 58.4074 24.8565 58.4074 24.8565C58.3417 25.3593 45.3939 23.0695 39.4436 19.9989Z" fill="#FFE63A"/>
<path d="M91.5097 59.397C91.5162 60.7496 92.4314 63.0894 92.4333 63.4501L95.1313 62.0828C97.6543 61.1104 99.2899 61.7288 100.101 63.8596C101.069 65.3234 101.149 66.2083 100.574 67.9151C98.1247 71.0215 95.1913 73.3549 93.3983 75.1681L91.6191 79.6867C91.2359 82.5685 90.7572 84.1486 89.4036 86.9129C87.1267 92.2122 85.1163 94.9637 80.454 99.5862L75.9647 103.218C72.2456 105.824 70.2888 106.71 66.9689 107.324C64.0502 108.287 62.4618 107.799 59.7572 107.814C55.2729 107.878 53.1076 107.586 49.8306 106.515C43.2983 103.235 40.3075 100.765 36.2434 95.3157C33.1628 90.4156 31.6021 87.6431 30.3163 83.1735C29.6526 79.2762 29.4768 76.5417 29.3464 70.5536C26.8573 68.2146 26.005 66.6234 25.2496 63.3614L29.31 63.7904L29.3124 64.2413L32.0371 67.8338C34.1226 69.6311 35.3935 70.4125 37.918 71.4092C41.1357 71.2642 42.6799 70.8444 45.1224 69.5668C49.6466 66.9749 52.2033 65.0838 56.7991 60.9368C55.5616 64.8894 55.2058 67.1727 55.0515 71.3168C56.4107 72.6622 60.0177 72.6427 61.3639 71.2828C61.3508 70.6597 60.4763 70.4643 57.3011 70.4029C57.4039 67.5061 57.6596 65.8237 58.6124 62.7306L60.8303 55.9553C61.2756 55.051 62.6282 55.0437 63.0847 55.9431C63.6849 58.6591 64.2848 60.0526 65.824 62.2409C67.3581 65.0465 70.303 67.2379 72.6262 69.4185C75.6642 71.1259 77.4029 71.7852 80.759 72.5309C83.8496 72.5484 85.2634 72.191 87.0617 70.6933C88.9497 69.6134 89.5423 68.6313 89.7426 66.1699C90.0729 62.9367 90.0252 61.1836 89.2472 58.0564C90.2303 58.1814 90.7314 58.4865 91.5097 59.397Z" stroke="black" stroke-width="0.0901776"/>
<path d="M77.5 53.6108C81.5324 56.6193 83.6278 58.4716 87.0147 62.1265L87.0268 64.3809C83.6253 59.8656 81.5248 57.5137 77.5 53.6108Z" stroke="black" stroke-width="0.0901776"/>
<path d="M82.9957 69.3625C84.6678 68.7721 85.4908 68.3108 86.5906 67.0887C82.1 61.2028 79.3027 58.2856 73.8929 53.6303L68.0315 53.6619C74.7794 59.7389 78.0867 63.1746 82.9957 69.3625Z" stroke="black" stroke-width="0.0901776"/>
<path d="M42.3288 53.3496C46.2067 56.5372 48.3114 58.5122 51.8459 62.3162L50.9466 62.772L40.9737 52.906L42.3288 53.3496Z" stroke="black" stroke-width="0.0901776"/>
<path d="M34.23 56.5495C38.6963 60.1584 41.1039 62.3179 45.1054 66.4106L42.4042 67.3269C39.3087 63.5504 37.3048 61.4838 33.3355 57.907L34.23 56.5495Z" stroke="black" stroke-width="0.0901776"/>
<path d="M40.6031 67.7876C38.1063 64.5538 36.4868 62.8756 33.3477 60.1614L33.3574 61.965C35.9587 64.5249 37.2837 66.0103 39.2553 68.6966L40.6031 67.7876Z" stroke="black" stroke-width="0.0901776"/>
<path d="M39.4436 19.9989C39.0025 21.8049 38.1211 25.5972 38.125 26.3186C46.175 27.9455 50.7564 28.6822 59.3359 29.8114C67.1415 30.3162 71.353 30.2851 78.7238 29.7068C85.0218 29.5809 87.8337 28.9061 91.3322 26.4826C90.0657 23.6681 89.2667 22.1926 87.6879 19.7388C80.7109 24.3642 76.9274 25.5227 70.5836 25.2418C66.6789 25.7876 58.4074 24.8565 58.4074 24.8565C58.3417 25.3593 45.3939 23.0695 39.4436 19.9989Z" stroke="black" stroke-width="0.0901776"/>
<path d="M80.3356 77.4935L83.0361 76.5772C83.4399 76.8249 83.5298 77.1031 83.4942 77.9274L83.0482 78.8316C82.8032 79.5371 82.8244 79.9319 83.058 80.6351L81.269 83.3501C80.133 84.6846 79.3695 85.2959 77.6765 86.0749L75.4221 86.087L74.0744 86.9961C73.2042 86.9968 72.8239 87.0023 72.2708 87.0058C72.2708 87.0058 71.1482 86.8098 70.4649 86.5646C69.7237 86.2987 68.6565 85.6726 68.6565 85.6726C68.6565 85.6726 67.8312 85.7114 67.3038 85.6799C65.8544 85.5932 65.069 85.2581 63.6919 84.7976C62.4202 84.3723 60.5285 83.462 60.5285 83.462C59.8752 83.8926 59.478 84.0114 58.7274 83.9226C57.8199 83.8006 57.4211 83.5936 56.919 83.0305C56.6174 83.1965 56.317 83.3808 55.5712 83.9396C54.9899 84.0228 54.7852 84.0648 54.2186 83.9469L53.3144 83.5009C52.3425 83.391 51.85 83.2148 51.0551 82.6112L49.7049 83.0694C48.6883 83.6145 48.0797 83.7021 47.002 83.5349C45.5561 83.3848 44.8563 83.1835 43.841 82.6501C42.4703 81.9702 41.7768 81.48 40.6727 80.4128C39.3977 79.2397 38.6637 78.297 37.9455 76.3694C37.6108 75.6908 37.5903 75.2954 37.9358 74.5659L38.3818 73.6617C38.2811 73.3553 38.2907 73.1645 38.3769 72.7599C39.2549 72.5978 39.7544 72.5895 40.6313 72.7478C41.6071 72.9735 42.0238 73.1597 42.4397 73.6398C43.273 73.5723 43.8381 73.6512 45.1474 74.0761C46.1493 74.7101 45.4675 74.2577 47.8552 74.5124C48.6463 74.1058 49.1665 74.0184 50.1071 74.0494C50.8344 73.2509 51.2938 72.8392 52.3518 72.2337C53.314 71.8048 53.8937 71.7762 55.0571 72.2191L58.6715 73.5523C60.4416 73.1567 61.3213 72.8543 62.7221 72.1778L64.0747 72.1705C64.0747 72.1705 64.5852 72.6187 64.9789 72.6165C65.8806 72.6115 67.2309 72.1535 67.2309 72.1535C69.5285 73.5471 70.8332 74.2421 73.1094 75.278C74.2424 76.468 75.1451 76.9488 77.1795 77.5106L80.3356 77.4935Z" fill="black"/>
<path d="M57.8644 91.1414C59.1609 91.092 59.6386 91.288 60.1237 92.031C60.2516 93.1628 59.9112 93.6374 58.7833 94.2927L56.5288 94.3049C53.4878 92.679 52.2305 91.5559 50.1873 88.9283C50.0642 88.2143 50.0501 87.7198 50.1751 86.674L51.5278 86.6668C53.5922 89.0931 54.9469 90.0736 57.8644 91.1414Z" fill="black"/>
<path d="M80.3356 77.4935L83.0361 76.5772C83.4399 76.8249 83.5298 77.1031 83.4942 77.9274L83.0482 78.8316C82.8032 79.5371 82.8244 79.9319 83.058 80.6351L81.269 83.3501C80.133 84.6846 79.3695 85.2959 77.6765 86.0749L75.4221 86.087L74.0744 86.9961C73.2042 86.9968 72.8239 87.0023 72.2708 87.0058C72.2708 87.0058 71.1482 86.8098 70.4649 86.5646C69.7237 86.2987 68.6565 85.6726 68.6565 85.6726C68.6565 85.6726 67.8312 85.7114 67.3038 85.6799C65.8544 85.5932 65.069 85.2581 63.6919 84.7976C62.4202 84.3723 60.5285 83.462 60.5285 83.462C59.8752 83.8926 59.478 84.0114 58.7274 83.9226C57.8199 83.8006 57.4211 83.5936 56.919 83.0305C56.6174 83.1965 56.317 83.3808 55.5712 83.9396C54.9899 84.0228 54.7852 84.0648 54.2186 83.9469L53.3144 83.5009C52.3425 83.391 51.85 83.2148 51.0551 82.6112L49.7049 83.0694C48.6883 83.6145 48.0797 83.7021 47.002 83.5349C45.5561 83.3848 44.8563 83.1835 43.841 82.6501C42.4703 81.9702 41.7768 81.48 40.6727 80.4128C39.3977 79.2397 38.6637 78.297 37.9455 76.3694C37.6108 75.6908 37.5903 75.2954 37.9358 74.5659L38.3818 73.6617C38.2811 73.3553 38.2907 73.1645 38.3769 72.7599C39.2549 72.5978 39.7544 72.5895 40.6313 72.7478C41.6071 72.9735 42.0238 73.1597 42.4397 73.6398C43.273 73.5723 43.8381 73.6512 45.1474 74.0761C46.1493 74.7101 45.4675 74.2577 47.8552 74.5124C48.6463 74.1058 49.1665 74.0184 50.1071 74.0494C50.8344 73.2509 51.2938 72.8392 52.3518 72.2337C53.314 71.8048 53.8937 71.7762 55.0571 72.2191L58.6715 73.5523C60.4416 73.1567 61.3213 72.8543 62.7221 72.1778L64.0747 72.1705C64.0747 72.1705 64.5852 72.6187 64.9789 72.6165C65.8806 72.6115 67.2309 72.1535 67.2309 72.1535C69.5285 73.5471 70.8332 74.2421 73.1094 75.278C74.2424 76.468 75.1451 76.9488 77.1795 77.5106L80.3356 77.4935Z" stroke="black" stroke-width="0.0901776"/>
<path d="M57.8644 91.1414C59.1609 91.092 59.6386 91.288 60.1237 92.031C60.2516 93.1628 59.9112 93.6374 58.7833 94.2927L56.5288 94.3049C53.4878 92.679 52.2305 91.5559 50.1873 88.9283C50.0642 88.2143 50.0501 87.7198 50.1751 86.674L51.5278 86.6668C53.5922 89.0931 54.9469 90.0736 57.8644 91.1414Z" stroke="black" stroke-width="0.0901776"/>
</svg>